<?xml version="1.0" encoding="utf-8" standalone="no"?>
<!DOCTYPE svg PUBLIC "-//W3C//DTD SVG 1.1//EN"
  "http://www.w3.org/Graphics/SVG/1.1/DTD/svg11.dtd">
<svg height="432pt" version="1.1" viewBox="0 0 576 432" width="576pt" xmlns="http://www.w3.org/2000/svg" xmlns:xlink="http://www.w3.org/1999/xlink">
 <metadata>
  <rdf:RDF xmlns:cc="http://creativecommons.org/ns#" xmlns:dc="http://purl.org/dc/elements/1.1/" xmlns:rdf="http://www.w3.org/1999/02/22-rdf-syntax-ns#">
   <cc:Work>
    <dc:type rdf:resource="http://purl.org/dc/dcmitype/StillImage"/>
    <dc:date>2021-08-29T13:41:32.746839</dc:date>
    <dc:format>image/svg+xml</dc:format>
    <dc:creator>
     <cc:Agent>
      <dc:title>Matplotlib v3.4.3, https://matplotlib.org/</dc:title>
     </cc:Agent>
    </dc:creator>
   </cc:Work>
  </rdf:RDF>
 </metadata>
 <defs>
  <style type="text/css">*{stroke-linecap:butt;stroke-linejoin:round;}</style>
 </defs>
 <g id="figure_1">
  <g id="patch_1">
   <path d="M 0 432 
L 576 432 
L 576 0 
L 0 0 
z
" style="fill:#ffffff;"/>
  </g>
  <g id="axes_1">
   <g id="patch_2">
    <path d="M 72 384.48 
L 518.4 384.48 
L 518.4 51.84 
L 72 51.84 
z
" style="fill:#ffffff;"/>
   </g>
   <g id="matplotlib.axis_1">
    <g id="xtick_1">
     <g id="line2d_1">
      <defs>
       <path d="M 0 0 
L 0 3.5 
" id="m3d49b684a6" style="stroke:#000000;stroke-width:0.8;"/>
      </defs>
      <g>
       <use style="stroke:#000000;stroke-width:0.8;" x="90.654545" xlink:href="#m3d49b684a6" y="384.48"/>
      </g>
     </g>
     <g id="text_1">
      <!-- 0 -->
      <g transform="translate(87.473295 399.078438)scale(0.1 -0.1)">
       <defs>
        <path d="M 2034 4250 
Q 1547 4250 1301 3770 
Q 1056 3291 1056 2328 
Q 1056 1369 1301 889 
Q 1547 409 2034 409 
Q 2525 409 2770 889 
Q 3016 1369 3016 2328 
Q 3016 3291 2770 3770 
Q 2525 4250 2034 4250 
z
M 2034 4750 
Q 2819 4750 3233 4129 
Q 3647 3509 3647 2328 
Q 3647 1150 3233 529 
Q 2819 -91 2034 -91 
Q 1250 -91 836 529 
Q 422 1150 422 2328 
Q 422 3509 836 4129 
Q 1250 4750 2034 4750 
z
" id="DejaVuSans-30" transform="scale(0.015625)"/>
       </defs>
       <use xlink:href="#DejaVuSans-30"/>
      </g>
     </g>
    </g>
    <g id="xtick_2">
     <g id="line2d_2">
      <g>
       <use style="stroke:#000000;stroke-width:0.8;" x="172.145455" xlink:href="#m3d49b684a6" y="384.48"/>
      </g>
     </g>
     <g id="text_2">
      <!-- 2 -->
      <g transform="translate(168.964205 399.078438)scale(0.1 -0.1)">
       <defs>
        <path d="M 1228 531 
L 3431 531 
L 3431 0 
L 469 0 
L 469 531 
Q 828 903 1448 1529 
Q 2069 2156 2228 2338 
Q 2531 2678 2651 2914 
Q 2772 3150 2772 3378 
Q 2772 3750 2511 3984 
Q 2250 4219 1831 4219 
Q 1534 4219 1204 4116 
Q 875 4013 500 3803 
L 500 4441 
Q 881 4594 1212 4672 
Q 1544 4750 1819 4750 
Q 2544 4750 2975 4387 
Q 3406 4025 3406 3419 
Q 3406 3131 3298 2873 
Q 3191 2616 2906 2266 
Q 2828 2175 2409 1742 
Q 1991 1309 1228 531 
z
" id="DejaVuSans-32" transform="scale(0.015625)"/>
       </defs>
       <use xlink:href="#DejaVuSans-32"/>
      </g>
     </g>
    </g>
    <g id="xtick_3">
     <g id="line2d_3">
      <g>
       <use style="stroke:#000000;stroke-width:0.8;" x="253.636364" xlink:href="#m3d49b684a6" y="384.48"/>
      </g>
     </g>
     <g id="text_3">
      <!-- 4 -->
      <g transform="translate(250.455114 399.078438)scale(0.1 -0.1)">
       <defs>
        <path d="M 2419 4116 
L 825 1625 
L 2419 1625 
L 2419 4116 
z
M 2253 4666 
L 3047 4666 
L 3047 1625 
L 3713 1625 
L 3713 1100 
L 3047 1100 
L 3047 0 
L 2419 0 
L 2419 1100 
L 313 1100 
L 313 1709 
L 2253 4666 
z
" id="DejaVuSans-34" transform="scale(0.015625)"/>
       </defs>
       <use xlink:href="#DejaVuSans-34"/>
      </g>
     </g>
    </g>
    <g id="xtick_4">
     <g id="line2d_4">
      <g>
       <use style="stroke:#000000;stroke-width:0.8;" x="335.127273" xlink:href="#m3d49b684a6" y="384.48"/>
      </g>
     </g>
     <g id="text_4">
      <!-- 6 -->
      <g transform="translate(331.946023 399.078438)scale(0.1 -0.1)">
       <defs>
        <path d="M 2113 2584 
Q 1688 2584 1439 2293 
Q 1191 2003 1191 1497 
Q 1191 994 1439 701 
Q 1688 409 2113 409 
Q 2538 409 2786 701 
Q 3034 994 3034 1497 
Q 3034 2003 2786 2293 
Q 2538 2584 2113 2584 
z
M 3366 4563 
L 3366 3988 
Q 3128 4100 2886 4159 
Q 2644 4219 2406 4219 
Q 1781 4219 1451 3797 
Q 1122 3375 1075 2522 
Q 1259 2794 1537 2939 
Q 1816 3084 2150 3084 
Q 2853 3084 3261 2657 
Q 3669 2231 3669 1497 
Q 3669 778 3244 343 
Q 2819 -91 2113 -91 
Q 1303 -91 875 529 
Q 447 1150 447 2328 
Q 447 3434 972 4092 
Q 1497 4750 2381 4750 
Q 2619 4750 2861 4703 
Q 3103 4656 3366 4563 
z
" id="DejaVuSans-36" transform="scale(0.015625)"/>
       </defs>
       <use xlink:href="#DejaVuSans-36"/>
      </g>
     </g>
    </g>
    <g id="xtick_5">
     <g id="line2d_5">
      <g>
       <use style="stroke:#000000;stroke-width:0.8;" x="416.618182" xlink:href="#m3d49b684a6" y="384.48"/>
      </g>
     </g>
     <g id="text_5">
      <!-- 8 -->
      <g transform="translate(413.436932 399.078438)scale(0.1 -0.1)">
       <defs>
        <path d="M 2034 2216 
Q 1584 2216 1326 1975 
Q 1069 1734 1069 1313 
Q 1069 891 1326 650 
Q 1584 409 2034 409 
Q 2484 409 2743 651 
Q 3003 894 3003 1313 
Q 3003 1734 2745 1975 
Q 2488 2216 2034 2216 
z
M 1403 2484 
Q 997 2584 770 2862 
Q 544 3141 544 3541 
Q 544 4100 942 4425 
Q 1341 4750 2034 4750 
Q 2731 4750 3128 4425 
Q 3525 4100 3525 3541 
Q 3525 3141 3298 2862 
Q 3072 2584 2669 2484 
Q 3125 2378 3379 2068 
Q 3634 1759 3634 1313 
Q 3634 634 3220 271 
Q 2806 -91 2034 -91 
Q 1263 -91 848 271 
Q 434 634 434 1313 
Q 434 1759 690 2068 
Q 947 2378 1403 2484 
z
M 1172 3481 
Q 1172 3119 1398 2916 
Q 1625 2713 2034 2713 
Q 2441 2713 2670 2916 
Q 2900 3119 2900 3481 
Q 2900 3844 2670 4047 
Q 2441 4250 2034 4250 
Q 1625 4250 1398 4047 
Q 1172 3844 1172 3481 
z
" id="DejaVuSans-38" transform="scale(0.015625)"/>
       </defs>
       <use xlink:href="#DejaVuSans-38"/>
      </g>
     </g>
    </g>
    <g id="xtick_6">
     <g id="line2d_6">
      <g>
       <use style="stroke:#000000;stroke-width:0.8;" x="498.109091" xlink:href="#m3d49b684a6" y="384.48"/>
      </g>
     </g>
     <g id="text_6">
      <!-- 10 -->
      <g transform="translate(491.746591 399.078438)scale(0.1 -0.1)">
       <defs>
        <path d="M 794 531 
L 1825 531 
L 1825 4091 
L 703 3866 
L 703 4441 
L 1819 4666 
L 2450 4666 
L 2450 531 
L 3481 531 
L 3481 0 
L 794 0 
L 794 531 
z
" id="DejaVuSans-31" transform="scale(0.015625)"/>
       </defs>
       <use xlink:href="#DejaVuSans-31"/>
       <use x="63.623047" xlink:href="#DejaVuSans-30"/>
      </g>
     </g>
    </g>
   </g>
   <g id="matplotlib.axis_2">
    <g id="ytick_1">
     <g id="line2d_7">
      <defs>
       <path d="M 0 0 
L -3.5 0 
" id="m43a9b4228f" style="stroke:#000000;stroke-width:0.8;"/>
      </defs>
      <g>
       <use style="stroke:#000000;stroke-width:0.8;" x="72" xlink:href="#m43a9b4228f" y="382.645009"/>
      </g>
     </g>
     <g id="text_7">
      <!-- −0.8 -->
      <g transform="translate(40.717187 386.444227)scale(0.1 -0.1)">
       <defs>
        <path d="M 678 2272 
L 4684 2272 
L 4684 1741 
L 678 1741 
L 678 2272 
z
" id="DejaVuSans-2212" transform="scale(0.015625)"/>
        <path d="M 684 794 
L 1344 794 
L 1344 0 
L 684 0 
L 684 794 
z
" id="DejaVuSans-2e" transform="scale(0.015625)"/>
       </defs>
       <use xlink:href="#DejaVuSans-2212"/>
       <use x="83.789062" xlink:href="#DejaVuSans-30"/>
       <use x="147.412109" xlink:href="#DejaVuSans-2e"/>
       <use x="179.199219" xlink:href="#DejaVuSans-38"/>
      </g>
     </g>
    </g>
    <g id="ytick_2">
     <g id="line2d_8">
      <g>
       <use style="stroke:#000000;stroke-width:0.8;" x="72" xlink:href="#m43a9b4228f" y="344.252325"/>
      </g>
     </g>
     <g id="text_8">
      <!-- −0.6 -->
      <g transform="translate(40.717187 348.051544)scale(0.1 -0.1)">
       <use xlink:href="#DejaVuSans-2212"/>
       <use x="83.789062" xlink:href="#DejaVuSans-30"/>
       <use x="147.412109" xlink:href="#DejaVuSans-2e"/>
       <use x="179.199219" xlink:href="#DejaVuSans-36"/>
      </g>
     </g>
    </g>
    <g id="ytick_3">
     <g id="line2d_9">
      <g>
       <use style="stroke:#000000;stroke-width:0.8;" x="72" xlink:href="#m43a9b4228f" y="305.859642"/>
      </g>
     </g>
     <g id="text_9">
      <!-- −0.4 -->
      <g transform="translate(40.717187 309.658861)scale(0.1 -0.1)">
       <use xlink:href="#DejaVuSans-2212"/>
       <use x="83.789062" xlink:href="#DejaVuSans-30"/>
       <use x="147.412109" xlink:href="#DejaVuSans-2e"/>
       <use x="179.199219" xlink:href="#DejaVuSans-34"/>
      </g>
     </g>
    </g>
    <g id="ytick_4">
     <g id="line2d_10">
      <g>
       <use style="stroke:#000000;stroke-width:0.8;" x="72" xlink:href="#m43a9b4228f" y="267.466959"/>
      </g>
     </g>
     <g id="text_10">
      <!-- −0.2 -->
      <g transform="translate(40.717187 271.266178)scale(0.1 -0.1)">
       <use xlink:href="#DejaVuSans-2212"/>
       <use x="83.789062" xlink:href="#DejaVuSans-30"/>
       <use x="147.412109" xlink:href="#DejaVuSans-2e"/>
       <use x="179.199219" xlink:href="#DejaVuSans-32"/>
      </g>
     </g>
    </g>
    <g id="ytick_5">
     <g id="line2d_11">
      <g>
       <use style="stroke:#000000;stroke-width:0.8;" x="72" xlink:href="#m43a9b4228f" y="229.074276"/>
      </g>
     </g>
     <g id="text_11">
      <!-- 0.0 -->
      <g transform="translate(49.096875 232.873495)scale(0.1 -0.1)">
       <use xlink:href="#DejaVuSans-30"/>
       <use x="63.623047" xlink:href="#DejaVuSans-2e"/>
       <use x="95.410156" xlink:href="#DejaVuSans-30"/>
      </g>
     </g>
    </g>
    <g id="ytick_6">
     <g id="line2d_12">
      <g>
       <use style="stroke:#000000;stroke-width:0.8;" x="72" xlink:href="#m43a9b4228f" y="190.681593"/>
      </g>
     </g>
     <g id="text_12">
      <!-- 0.2 -->
      <g transform="translate(49.096875 194.480812)scale(0.1 -0.1)">
       <use xlink:href="#DejaVuSans-30"/>
       <use x="63.623047" xlink:href="#DejaVuSans-2e"/>
       <use x="95.410156" xlink:href="#DejaVuSans-32"/>
      </g>
     </g>
    </g>
    <g id="ytick_7">
     <g id="line2d_13">
      <g>
       <use style="stroke:#000000;stroke-width:0.8;" x="72" xlink:href="#m43a9b4228f" y="152.28891"/>
      </g>
     </g>
     <g id="text_13">
      <!-- 0.4 -->
      <g transform="translate(49.096875 156.088129)scale(0.1 -0.1)">
       <use xlink:href="#DejaVuSans-30"/>
       <use x="63.623047" xlink:href="#DejaVuSans-2e"/>
       <use x="95.410156" xlink:href="#DejaVuSans-34"/>
      </g>
     </g>
    </g>
    <g id="ytick_8">
     <g id="line2d_14">
      <g>
       <use style="stroke:#000000;stroke-width:0.8;" x="72" xlink:href="#m43a9b4228f" y="113.896227"/>
      </g>
     </g>
     <g id="text_14">
      <!-- 0.6 -->
      <g transform="translate(49.096875 117.695446)scale(0.1 -0.1)">
       <use xlink:href="#DejaVuSans-30"/>
       <use x="63.623047" xlink:href="#DejaVuSans-2e"/>
       <use x="95.410156" xlink:href="#DejaVuSans-36"/>
      </g>
     </g>
    </g>
    <g id="ytick_9">
     <g id="line2d_15">
      <g>
       <use style="stroke:#000000;stroke-width:0.8;" x="72" xlink:href="#m43a9b4228f" y="75.503544"/>
      </g>
     </g>
     <g id="text_15">
      <!-- 0.8 -->
      <g transform="translate(49.096875 79.302763)scale(0.1 -0.1)">
       <use xlink:href="#DejaVuSans-30"/>
       <use x="63.623047" xlink:href="#DejaVuSans-2e"/>
       <use x="95.410156" xlink:href="#DejaVuSans-38"/>
      </g>
     </g>
    </g>
   </g>
   <g id="line2d_16">
    <path clip-path="url(#pdd22f3f34c)" d="M 92.290909 267.850583 
L 93.927273 232.246133 
L 95.563636 203.136901 
L 97.2 177.564604 
L 98.836364 154.783066 
L 100.472727 134.584047 
L 102.109091 116.940557 
L 103.745455 101.890173 
L 105.381818 89.48678 
L 107.018182 79.77741 
L 108.654545 72.790003 
L 110.290909 68.526663 
L 111.927273 66.96 
L 113.563636 68.031426 
L 115.2 71.650783 
L 116.836364 77.696973 
L 118.472727 86.019363 
L 120.109091 96.439824 
L 121.745455 108.755291 
L 123.381818 122.740748 
L 125.018182 138.15256 
L 128.290909 172.209474 
L 138.109091 280.404751 
L 139.745455 296.500999 
L 141.381818 311.403893 
L 143.018182 324.915113 
L 144.654545 336.860397 
L 146.290909 347.091636 
L 147.927273 355.488555 
L 149.563636 361.959976 
L 151.2 366.444636 
L 152.836364 368.911562 
L 154.472727 369.36 
L 156.109091 367.818919 
L 157.745455 364.346082 
L 159.381818 359.026724 
L 161.018182 351.97185 
L 162.654545 343.316194 
L 164.290909 333.215859 
L 165.927273 321.845696 
L 167.563636 309.396443 
L 170.836364 282.08471 
L 179.018182 209.944786 
L 182.290909 184.067963 
L 183.927273 172.547419 
L 185.563636 162.189023 
L 187.2 153.131789 
L 188.836364 145.493668 
L 190.472727 139.370147 
L 192.109091 134.833203 
L 193.745455 131.930612 
L 195.381818 130.685612 
L 197.018182 131.096941 
L 198.654545 133.13921 
L 200.290909 136.763639 
L 201.927273 141.899103 
L 203.563636 148.453496 
L 205.2 156.315372 
L 206.836364 165.355841 
L 208.472727 175.430688 
L 211.745455 198.04403 
L 215.018182 222.786358 
L 221.563636 272.841648 
L 224.836364 295.329441 
L 226.472727 305.379855 
L 228.109091 314.453811 
L 229.745455 322.434876 
L 231.381818 329.223719 
L 233.018182 334.739263 
L 234.654545 338.919563 
L 236.290909 341.722395 
L 237.927273 343.125547 
L 239.563636 343.126823 
L 241.2 341.743755 
L 242.836364 339.013038 
L 244.472727 334.989698 
L 246.109091 329.746008 
L 247.745455 323.370176 
L 249.381818 315.964826 
L 251.018182 307.645287 
L 252.654545 298.537743 
L 255.927273 278.505602 
L 267.381818 204.635902 
L 269.018182 195.487369 
L 270.654545 187.059519 
L 272.290909 179.448941 
L 273.927273 172.738574 
L 275.563636 166.996752 
L 277.2 162.276475 
L 278.836364 158.614906 
L 280.472727 156.033119 
L 282.109091 154.536073 
L 283.745455 154.112821 
L 285.381818 154.736953 
L 287.018182 156.367248 
L 288.654545 158.948533 
L 290.290909 162.412733 
L 291.927273 166.680085 
L 293.563636 171.660506 
L 295.2 177.255086 
L 298.472727 189.85663 
L 303.381818 210.56786 
L 306.654545 224.218267 
L 309.927273 236.703194 
L 311.563636 242.258121 
L 313.2 247.237417 
L 314.836364 251.565419 
L 316.472727 255.17748 
L 318.109091 258.020753 
L 319.745455 260.054793 
L 321.381818 261.251964 
L 323.018182 261.597659 
L 324.654545 261.090328 
L 326.290909 259.74131 
L 327.927273 257.574488 
L 329.563636 254.625765 
L 331.2 250.942366 
L 332.836364 246.582003 
L 334.472727 241.611884 
L 336.109091 236.10761 
L 339.381818 223.83361 
L 344.290909 203.648363 
L 349.2 183.663398 
L 352.472727 171.707898 
L 354.109091 166.395813 
L 355.745455 161.625961 
L 357.381818 157.462131 
L 359.018182 153.959097 
L 360.654545 151.161964 
L 362.290909 149.10567 
L 363.927273 147.814635 
L 365.563636 147.302573 
L 367.2 147.572451 
L 368.836364 148.616613 
L 370.472727 150.417051 
L 372.109091 152.94581 
L 373.745455 156.165548 
L 375.381818 160.030201 
L 377.018182 164.485781 
L 378.654545 169.471257 
L 380.290909 174.919538 
L 383.563636 186.912164 
L 388.472727 206.466243 
L 393.381818 225.981055 
L 396.654545 237.96314 
L 398.290909 243.446865 
L 399.927273 248.517574 
L 401.563636 253.127906 
L 403.2 257.238174 
L 404.836364 260.816773 
L 406.472727 263.840486 
L 408.109091 266.294644 
L 409.745455 268.173178 
L 411.381818 269.478529 
L 413.018182 270.221446 
L 414.654545 270.420665 
L 416.290909 270.10248 
L 417.927273 269.300199 
L 419.563636 268.053529 
L 421.2 266.407857 
L 422.836364 264.413472 
L 424.472727 262.124728 
L 427.745455 256.896561 
L 435.927273 242.862061 
L 437.563636 240.362825 
L 439.2 238.091295 
L 440.836364 236.0931 
L 442.472727 234.408662 
L 444.109091 233.072676 
L 445.745455 232.113663 
L 447.381818 231.553638 
L 449.018182 231.407862 
L 450.654545 231.68471 
L 452.290909 232.385633 
L 453.927273 233.505224 
L 455.563636 235.031385 
L 457.2 236.945588 
L 458.836364 239.223222 
L 460.472727 241.834032 
L 462.109091 244.742625 
L 465.381818 251.289436 
L 468.654545 258.501096 
L 475.2 273.292166 
L 478.472727 280.042025 
L 480.109091 283.08377 
L 481.745455 285.844938 
L 483.381818 288.286343 
L 485.018182 290.373144 
L 486.654545 292.075286 
L 488.290909 293.36786 
L 489.927273 294.23139 
L 491.563636 294.652039 
L 493.2 294.621724 
L 494.836364 294.138159 
L 496.472727 293.204805 
L 498.109091 291.830745 
L 498.109091 291.830745 
" style="fill:none;stroke:#1f77b4;stroke-linecap:square;stroke-width:1.5;"/>
   </g>
   <g id="patch_3">
    <path d="M 72 384.48 
L 72 51.84 
" style="fill:none;stroke:#000000;stroke-linecap:square;stroke-linejoin:miter;stroke-width:0.8;"/>
   </g>
   <g id="patch_4">
    <path d="M 518.4 384.48 
L 518.4 51.84 
" style="fill:none;stroke:#000000;stroke-linecap:square;stroke-linejoin:miter;stroke-width:0.8;"/>
   </g>
   <g id="patch_5">
    <path d="M 72 384.48 
L 518.4 384.48 
" style="fill:none;stroke:#000000;stroke-linecap:square;stroke-linejoin:miter;stroke-width:0.8;"/>
   </g>
   <g id="patch_6">
    <path d="M 72 51.84 
L 518.4 51.84 
" style="fill:none;stroke:#000000;stroke-linecap:square;stroke-linejoin:miter;stroke-width:0.8;"/>
   </g>
  </g>
 </g>
 <defs>
  <clipPath id="pdd22f3f34c">
   <rect height="332.64" width="446.4" x="72" y="51.84"/>
  </clipPath>
 </defs>
</svg>
